<?xml version="1.0" standalone="no"?>
<!DOCTYPE svg PUBLIC "-//W3C//DTD SVG 20010904//EN"
 "http://www.w3.org/TR/2001/REC-SVG-20010904/DTD/svg10.dtd">
<svg version="1.0" xmlns="http://www.w3.org/2000/svg"
 width="339.200000pt" height="100.800000pt" viewBox="0 0 339.200000 100.800000"
 preserveAspectRatio="xMidYMid meet">
<metadata>
Created by potrace 1.13, written by Peter Selinger 2001-2015
</metadata>
<g transform="translate(0.000000,100.800000) scale(0.080000,-0.080000)"
fill="#000000" stroke="none">
<path d="M848 792 l-378 -2 0 -45 0 -45 760 0 760 0 0 45 0 45 -369 0 c-203 0
-375 1 -383 3 -7 1 -183 1 -390 -1z"/>
<path d="M2120 745 l0 -55 100 0 100 0 0 55 0 55 -100 0 -100 0 0 -55z"/>
<path d="M2828 792 l-378 -2 0 -45 0 -45 760 0 760 0 0 45 0 45 -369 0 c-203
0 -375 1 -383 3 -7 1 -183 1 -390 -1z"/>
</g>
</svg>
