<?xml version="1.0" standalone="no"?>
<!DOCTYPE svg PUBLIC "-//W3C//DTD SVG 20010904//EN"
 "http://www.w3.org/TR/2001/REC-SVG-20010904/DTD/svg10.dtd">
<svg version="1.0" xmlns="http://www.w3.org/2000/svg"
 width="907.200000pt" height="372.800000pt" viewBox="0 0 907.200000 372.800000"
 preserveAspectRatio="xMidYMid meet">
<metadata>
Created by potrace 1.13, written by Peter Selinger 2001-2015
</metadata>
<g transform="translate(0.000000,372.800000) scale(0.080000,-0.080000)"
fill="#000000" stroke="none">
<path d="M8658 3713 l-3 -178 -52 -3 -53 -3 0 -120 0 -119 55 0 55 0 0 -157
c0 -167 10 -224 49 -302 34 -66 112 -138 189 -174 64 -31 73 -32 210 -35 l143
-4 -3 119 -3 118 -115 5 c-128 6 -163 18 -202 72 -21 31 -23 44 -26 195 l-3
163 173 2 173 3 0 115 0 115 -172 3 -173 2 0 180 0 180 -120 0 -120 0 -2 -177z"/>
<path d="M9370 3255 l0 -635 114 0 115 0 3 278 c3 270 4 278 27 318 61 108
209 114 285 11 20 -27 21 -42 24 -318 l3 -289 120 0 120 0 -3 313 -3 312 -32
67 c-73 155 -233 250 -394 235 -33 -3 -77 -14 -99 -25 -22 -10 -42 -17 -45
-14 -3 3 -5 90 -5 194 l0 188 -115 0 -115 0 0 -635z"/>
<path d="M1042 3849 c-199 -30 -376 -156 -470 -336 -57 -111 -75 -193 -69
-318 6 -126 32 -210 95 -306 89 -136 226 -237 373 -276 88 -23 246 -22 324 1
67 20 175 74 218 110 l29 23 -64 107 c-34 58 -68 106 -74 106 -6 0 -20 -11
-33 -24 -12 -13 -45 -35 -74 -50 -227 -114 -491 24 -539 283 -29 156 65 327
220 399 49 23 70 27 147 27 103 0 161 -18 231 -71 24 -19 48 -34 52 -34 4 0
36 48 71 106 l63 106 -28 24 c-116 94 -316 146 -472 123z"/>
<path d="M6477 3833 c-4 -3 -7 -278 -7 -610 l0 -603 130 0 130 0 0 120 0 120
133 0 c73 0 160 5 193 11 89 16 180 65 249 134 70 71 109 137 130 226 63 268
-93 524 -361 593 -49 13 -118 16 -326 16 -146 0 -268 -3 -271 -7z m518 -253
c75 -12 129 -49 170 -115 26 -41 30 -58 30 -114 -1 -97 -44 -168 -130 -214
-35 -19 -60 -22 -187 -25 l-148 -4 0 241 0 241 103 0 c56 0 129 -5 162 -10z"/>
<path d="M1941 3560 c-121 -26 -253 -123 -309 -228 -59 -110 -77 -248 -51
-374 38 -182 187 -319 378 -349 119 -18 219 7 325 81 31 22 60 40 65 40 4 0
25 -25 46 -55 33 -48 42 -55 71 -55 l34 0 0 455 0 455 -34 0 c-24 0 -38 -7
-50 -22 -8 -13 -26 -36 -39 -51 l-24 -29 -74 50 c-41 27 -95 56 -120 66 -57
20 -160 28 -218 16z m167 -256 c105 -43 170 -169 142 -274 -35 -135 -172 -219
-286 -175 -123 47 -180 172 -140 309 37 125 167 189 284 140z"/>
<path d="M4810 3557 c-135 -31 -247 -122 -311 -252 -134 -273 -5 -610 262
-680 93 -25 171 -28 239 -11 65 17 149 60 199 102 l28 24 42 -60 c38 -54 46
-60 77 -60 l34 0 0 455 0 455 -32 0 c-27 0 -41 -9 -77 -51 -41 -48 -44 -49
-65 -34 -61 45 -126 83 -167 98 -62 23 -162 29 -229 14z m186 -256 c92 -42
157 -167 134 -259 -36 -148 -162 -229 -288 -188 -52 18 -98 59 -128 116 -28
53 -26 181 4 237 52 98 176 140 278 94z"/>
<path d="M7873 3555 c-184 -40 -327 -198 -355 -393 -24 -168 21 -321 127 -427
76 -75 155 -113 272 -127 81 -11 94 -10 162 11 70 21 170 76 185 100 14 23 36
9 73 -44 35 -51 41 -55 73 -53 l35 3 3 430 c1 237 0 440 -3 453 -4 17 -12 22
-40 22 -19 0 -35 -3 -35 -7 -1 -5 -18 -28 -40 -52 l-38 -44 -31 25 c-78 67
-209 119 -291 117 -19 0 -63 -7 -97 -14z m197 -260 c147 -75 172 -282 47 -392
-76 -67 -167 -78 -252 -30 -128 72 -149 284 -38 389 65 62 160 75 243 33z"/>
<path d="M2970 3536 c-51 -14 -104 -40 -139 -68 l-25 -19 -41 41 c-27 27 -50
40 -68 40 l-27 0 0 -455 0 -455 115 0 115 0 0 250 c0 283 7 333 53 380 39 40
65 50 126 50 53 0 99 -25 135 -73 20 -27 21 -42 24 -318 l3 -289 120 0 120 0
-3 313 -3 312 -27 57 c-35 76 -80 130 -143 173 -97 67 -227 91 -335 61z"/>
<path d="M3520 3515 c0 -13 58 -167 265 -705 l71 -185 121 -3 121 -3 10 28 c6
15 52 136 102 268 125 326 230 605 230 611 0 2 -61 3 -137 2 l-136 -3 -91
-262 c-50 -145 -94 -263 -97 -263 -9 0 -9 1 -94 246 -41 116 -80 228 -89 248
l-15 36 -130 0 c-109 0 -131 -2 -131 -15z"/>
<path d="M5685 3501 c-111 -53 -168 -142 -168 -262 0 -119 63 -217 173 -268
50 -23 71 -26 225 -31 l170 -5 3 -26 c2 -14 -3 -31 -11 -37 -9 -8 -100 -13
-288 -14 l-274 -3 -3 -117 -3 -118 294 0 c336 0 355 3 436 76 156 140 115 392
-76 464 -45 17 -78 20 -206 20 -122 0 -157 3 -175 16 -24 17 -30 67 -9 81 6 4
122 10 257 13 l245 5 0 115 0 115 -265 3 -265 2 -60 -29z"/>
<path d="M5262 1735 c-105 -33 -162 -119 -162 -245 0 -98 22 -161 74 -215 33
-34 52 -45 100 -56 116 -26 217 18 262 115 22 47 22 51 6 58 -38 15 -59 8 -72
-22 -7 -17 -28 -44 -47 -60 -28 -25 -42 -30 -86 -30 -94 0 -150 59 -163 173
-15 130 52 228 160 229 55 1 103 -25 124 -68 15 -33 19 -35 52 -29 19 4 36 8
38 10 2 2 -6 21 -17 43 -49 96 -153 134 -269 97z"/>
<path d="M5779 1736 c-56 -20 -96 -53 -126 -104 -26 -43 -28 -56 -28 -147 0
-114 13 -151 74 -210 88 -87 256 -81 343 12 97 102 90 304 -13 401 -61 57
-168 77 -250 48z m163 -72 c125 -63 123 -304 -3 -369 -36 -19 -112 -19 -148 0
-92 47 -128 189 -76 300 39 81 140 112 227 69z"/>
<path d="M3512 1723 c3 -10 34 -127 69 -260 l64 -243 37 0 37 0 20 68 c11 37
36 128 57 202 20 74 39 141 43 148 4 7 34 -84 66 -203 l58 -215 37 0 36 0 47
173 c26 94 58 211 71 260 l24 87 -38 0 -38 0 -47 -197 c-45 -190 -65 -248 -65
-191 0 14 -18 88 -39 164 -22 77 -44 158 -50 182 -12 41 -12 42 -56 42 l-44 0
-20 -67 c-48 -165 -91 -324 -91 -340 -1 -41 -18 19 -61 209 l-44 198 -39 0
c-32 0 -38 -3 -34 -17z"/>
<path d="M4230 1480 l0 -260 195 0 195 0 0 35 0 35 -155 0 -155 0 0 85 0 85
140 0 140 0 0 30 0 30 -140 0 -140 0 0 75 0 75 150 0 150 0 0 35 0 35 -190 0
-190 0 0 -260z"/>
<path d="M4710 1480 l0 -260 165 0 165 0 0 35 0 35 -125 0 -125 0 0 225 0 225
-40 0 -40 0 0 -260z"/>
<path d="M6190 1480 l0 -260 35 0 35 0 2 208 3 207 71 -205 72 -205 33 -3 34
-3 70 203 70 203 3 -203 2 -202 35 0 35 0 0 260 0 260 -49 0 -48 0 -68 -197
c-37 -109 -71 -204 -75 -212 -5 -8 -34 67 -77 195 l-70 209 -56 3 -57 3 0
-261z"/>
<path d="M6800 1480 l0 -260 196 0 195 0 -3 33 -3 32 -157 3 -158 3 0 84 0 85
145 0 145 0 0 30 0 30 -145 0 -145 0 0 75 0 75 150 0 150 0 0 35 0 35 -185 0
-185 0 0 -260z"/>
<path d="M1860 1410 l0 -30 723 2 722 3 0 25 0 25 -722 3 -723 2 0 -30z"/>
<path d="M7420 1410 l0 -30 723 2 722 3 0 25 0 25 -722 3 -723 2 0 -30z"/>
</g>
</svg>
